<?xml version="1.0" encoding="UTF-8" standalone="no"?>
<!DOCTYPE svg PUBLIC "-//W3C//DTD SVG 1.1//EN" "http://www.w3.org/Graphics/SVG/1.1/DTD/svg11.dtd">
<svg width="100%" height="100%" viewBox="0 0 1080 1080" version="1.1" xmlns="http://www.w3.org/2000/svg" xmlns:xlink="http://www.w3.org/1999/xlink" xml:space="preserve" xmlns:serif="http://www.serif.com/" style="fill-rule:evenodd;clip-rule:evenodd;stroke-linejoin:round;stroke-miterlimit:2;">
    <g transform="matrix(1,0,0,1,-7776.44,-2520.12)">
        <g id="white" transform="matrix(1,0,0,1,7776.44,2520.12)">
            <rect x="0" y="0" width="1080" height="1080" style="fill:none;"/>
            <g transform="matrix(2.03848,0,0,1.94975,-142.968,-416.602)">
                <path d="M355.69,690.375L312.851,690.375C309.7,690.375 307.146,687.704 307.146,684.41L307.146,415.66C307.146,402.334 304.802,392.74 299.22,387.158C293.47,381.408 282.298,379.125 265.976,379.125L250.351,379.125C247.2,379.125 244.646,376.454 244.646,373.16L244.646,323.16C244.646,320.32 246.561,317.873 249.225,317.313C272.193,312.477 292.151,304.247 309.076,292.562C323.664,282.43 338.031,268.427 352.215,250.596C353.298,249.234 354.906,248.445 356.601,248.445L419.726,248.445C419.742,248.445 419.758,248.445 419.775,248.446C421.13,248.458 422.373,248.964 423.346,249.8C423.597,250.015 423.829,250.252 424.04,250.507C424.906,251.553 425.431,252.917 425.431,254.41L425.431,684.41C425.431,686.4 424.49,688.21 422.984,689.306L364.654,731.741C362.91,733.01 360.636,733.16 358.753,732.132C356.871,731.103 355.69,729.066 355.69,726.845L355.69,690.375ZM367.1,715.428L414.021,681.294L414.021,265.827C414.021,265.827 390.056,283.261 390.056,283.261C382.186,306.901 374.198,326.806 366.11,342.982L366.106,342.99C356.686,361.76 345.642,378.345 332.989,392.753L332.989,428.996C339.888,424.045 345.562,421.597 349.811,421.197C354.257,420.779 357.69,422.2 360.251,425.029C362.169,427.148 363.862,430.44 365.013,435.066C366.371,440.525 367.1,448.198 367.1,458.095L367.1,715.428Z" style="fill:white;"/>
            </g>
        </g>
    </g>
</svg>
