<svg width="52" height="135" viewBox="0 0 52 135" fill="none" xmlns="http://www.w3.org/2000/svg">
<g clip-path="url(#clip0_110_4718)">
<path fill-rule="evenodd" clip-rule="evenodd" d="M31.6308 123.208H19.656C18.6246 123.208 17.7887 122.372 17.7887 121.34V46.6734C17.7887 43.038 17.1545 40.4158 15.5942 38.893C13.9904 37.3274 10.8667 36.7326 6.31455 36.7326H1.86738C0.835926 36.7326 0 35.8966 0 34.8656V20.974C0 20.0877 0.623031 19.3237 1.4914 19.1453C7.99237 17.8092 13.6418 15.5363 18.4322 12.3079C22.568 9.50402 26.6394 5.628 30.6602 0.693721C31.0149 0.258637 31.5465 0.00609113 32.1081 0.00609113H49.9138C50.2574 -0.0228033 50.6083 0.043318 50.9262 0.207516C51.1892 0.343098 51.4109 0.536191 51.5791 0.76679C51.8071 1.07657 51.942 1.45915 51.942 1.87312V20.5539L51.9671 121.334C51.9671 121.938 51.6745 122.505 51.1815 122.856L34.5823 134.65C34.0128 135.054 33.2651 135.107 32.6443 134.787C32.0236 134.467 31.6333 133.827 31.6331 133.128L31.6308 123.208ZM10.6521 22.8183C9.94059 22.8183 9.36281 23.8512 9.36281 25.124C9.36281 26.3964 9.94059 27.4297 10.6521 27.4297C11.3637 27.4297 11.9415 26.3964 11.9415 25.124C11.9415 23.8512 11.3637 22.8183 10.6521 22.8183ZM35.367 129.511L48.232 120.371L48.2035 5.48325C48.2035 5.48325 41.84 10.0047 41.84 10.0041C39.6052 16.5557 37.3362 22.0742 35.0391 26.5615L35.0379 26.564C32.3623 31.7716 29.2269 36.3759 25.6362 40.3794L25.6384 49.944C27.4745 48.7154 28.9995 48.1081 30.1573 48.0014C31.5147 47.8767 32.5618 48.3006 33.3442 49.1439C33.9074 49.7509 34.4101 50.6925 34.7482 52.0186C35.1379 53.5453 35.3488 55.6918 35.3493 58.4604L35.367 129.511ZM29.4327 40.7178C30.1334 40.5942 30.7024 41.543 30.7024 42.8352C30.7024 44.1273 30.1334 45.2767 29.4327 45.4004C28.7319 45.524 28.163 44.5752 28.163 43.283C28.163 41.9908 28.7319 40.8414 29.4327 40.7178Z" fill="white"/>
</g>
<defs>
<clipPath id="clip0_110_4718">
<rect width="52" height="135" fill="white"/>
</clipPath>
</defs>
</svg>
