<svg width="24" height="62" viewBox="0 0 24 62" fill="none" xmlns="http://www.w3.org/2000/svg">
<g clip-path="url(#clip0_110_5413)">
<path fill-rule="evenodd" clip-rule="evenodd" d="M14.7304 56.5376H9.048C8.63004 56.5376 8.29126 56.1958 8.29126 55.7744V21.3927C8.29126 19.6879 7.98034 18.4605 7.23992 17.7464C6.47722 17.0108 4.99531 16.7187 2.83029 16.7187H0.757714C0.339751 16.7187 0.000976562 16.377 0.000976562 15.9556V9.55899C0.000976562 9.19566 0.254992 8.88261 0.608357 8.81097C3.65494 8.19229 6.30226 7.13941 8.54727 5.64453C10.4823 4.34832 12.388 2.55689 14.2694 0.275729C14.4131 0.101486 14.6264 0.000549317 14.8512 0.000549317H23.2244C23.2265 0.000549317 23.2286 0.00054827 23.2309 0.000676202C23.4106 0.00221139 23.5755 0.0669455 23.7046 0.173897C23.7379 0.201402 23.7686 0.231722 23.7966 0.264345C23.9115 0.398162 23.9811 0.572661 23.9811 0.763663V55.7744C23.9811 56.029 23.8563 56.2606 23.6565 56.4008L15.9194 61.8296C15.6881 61.9919 15.3864 62.0111 15.1367 61.8796C14.887 61.748 14.7304 61.4874 14.7304 61.2032V56.5376ZM16.2438 59.7426L22.4677 55.3758V2.22426L19.2888 4.45463C18.2449 7.47894 17.1853 10.0254 16.1125 12.0949L16.112 12.0959C14.8625 14.4972 13.3976 16.6189 11.7192 18.4622V23.0988C12.6343 22.4654 13.3869 22.1522 13.9505 22.1011C14.5403 22.0476 14.9957 22.2294 15.3354 22.5913C15.5898 22.8624 15.8143 23.2835 15.967 23.8754C16.1471 24.5737 16.2438 25.5554 16.2438 26.8215V59.7426Z" fill="#004225"/>
</g>
<defs>
<clipPath id="clip0_110_5413">
<rect width="24" height="62" fill="white"/>
</clipPath>
</defs>
</svg>
