<svg width="104" height="267" viewBox="0 0 104 267" fill="none" xmlns="http://www.w3.org/2000/svg">
<g clip-path="url(#clip0_110_5051)">
<path fill-rule="evenodd" clip-rule="evenodd" d="M63.8303 243.476H39.2067C37.3955 243.476 35.9275 242.004 35.9275 240.189V92.1261C35.9275 84.7844 34.5802 79.4987 31.3717 76.4234C28.0666 73.2555 21.6451 71.9978 12.2633 71.9978H3.28213C1.47095 71.9978 0.00292969 70.5262 0.00292969 68.7115V41.1648C0.00292969 39.6001 1.10366 38.252 2.63491 37.9435C15.8368 35.2792 27.3085 30.745 37.0368 24.3074C45.4219 18.7253 53.68 11.0106 61.8329 1.18688C62.4554 0.436509 63.3796 0.00183106 64.3539 0.00183106H100.638C100.647 0.00183106 100.656 0.00182655 100.666 0.00237748C101.445 0.00898868 102.159 0.287763 102.718 0.748343C102.863 0.866794 102.996 0.997365 103.117 1.13785C103.615 1.71413 103.917 2.4656 103.917 3.28815V240.189C103.917 241.286 103.376 242.283 102.51 242.887L68.9827 266.266C67.9803 266.965 66.6732 267.047 65.5909 266.481C64.5091 265.914 63.8303 264.792 63.8303 263.568V243.476ZM70.3887 257.278L97.3585 238.473V9.57814L83.5836 19.1831C79.06 32.2072 74.4685 43.1735 69.8196 52.0854L69.8173 52.0898C64.4027 62.4308 58.0547 71.568 50.7819 79.5059V99.4734C54.7474 96.7457 58.0088 95.397 60.4511 95.1766C63.0066 94.9463 64.9799 95.7292 66.4519 97.2878C67.5544 98.4552 68.5275 100.269 69.1891 102.818C69.9696 105.825 70.3887 110.052 70.3887 115.505V257.278Z" fill="white"/>
</g>
<defs>
<clipPath id="clip0_110_5051">
<rect width="104" height="267" fill="white"/>
</clipPath>
</defs>
</svg>
