<svg width="392" height="265" viewBox="0 0 392 265" fill="none" xmlns="http://www.w3.org/2000/svg">
<g clip-path="url(#clip0_110_4790)">
<path d="M26.3806 199.692C24.5192 199.692 22.654 199.769 20.8325 199.924L20.5674 199.946C8.48502 201.014 -0.352654 207.208 0.0108148 214.355L0.0810816 215.647C0.127419 216.464 0.17679 217.342 0.217428 218.317C0.239437 218.797 0.895386 219.166 1.71159 219.166H298.908C319.862 219.039 340.74 218.879 360.958 218.69C364.75 218.698 368.54 218.502 372.31 218.102C377.929 217.437 381.829 216.12 384.234 214.074H384.235C387.225 211.537 387.32 208.342 387.139 204.732C386.77 197.444 386.405 189.787 386.04 182.153C385.718 175.425 385.398 168.715 385.077 162.292C384.879 158.479 384.438 155.114 381.042 152.543C377.361 149.761 370.648 148.351 361.088 148.351C360.973 148.351 360.858 148.351 360.741 148.352C330.782 148.458 301.097 158.756 286.875 173.976C285.237 175.729 283.711 177.605 282.235 179.42C280.054 182.101 277.8 184.872 275.109 187.351C273.653 188.712 272.077 189.939 270.402 191.019C270.287 191.099 270.154 191.185 270.015 191.266C269.695 191.474 269.361 191.675 269.035 191.854C267.127 192.955 265.116 193.869 263.032 194.582L262.821 194.653C262.663 194.709 262.491 194.766 262.319 194.817C261.115 195.204 259.865 195.538 258.612 195.808C253.19 197.002 247.026 197.289 240.29 196.658C234.104 196.064 227.998 194.82 222.073 192.947C215.835 190.977 209.997 188.52 204.351 186.144C201.87 185.1 199.305 184.021 196.744 182.998C196.262 182.806 195.788 182.618 195.307 182.43C192.179 181.211 189.342 180.204 186.635 179.352C179.93 177.233 172.989 175.948 165.969 175.526C158.518 175.118 151.952 175.887 146.458 177.806C144.943 178.333 143.469 178.969 142.045 179.707C135.537 183.085 131.525 188.071 127.646 192.892C122.82 198.89 117.83 205.092 107.976 208.307C96.6061 212.02 80.0094 210.477 68.2674 207.795C64.5757 206.951 60.8885 205.981 57.3226 205.042C55.8823 204.662 54.4411 204.286 52.9989 203.912C50.1648 203.18 47.8453 202.62 45.6994 202.147L45.0207 201.996C44.6432 201.914 44.2653 201.832 43.8805 201.754C41.3316 201.219 38.9582 200.798 36.6209 200.467L36.0679 200.386C34.9593 200.24 33.9228 200.119 32.9057 200.017L32.4997 199.976C30.5076 199.787 28.446 199.692 26.3806 199.692Z" fill="#F2F2F2"/>
<path d="M333.699 207.668C342.062 200.136 354.5 196.348 364.934 200.572C354.231 206.512 345.975 216.044 341.627 227.483C339.966 231.901 338.579 236.987 334.493 239.352C331.951 240.824 328.788 240.896 325.938 240.186C323.088 239.475 320.475 238.051 317.898 236.641L317.165 236.624C320.457 225.863 325.337 215.201 333.699 207.668Z" fill="#E6E6E6"/>
<path d="M364.876 200.801C355.635 201.994 347.005 206.068 340.213 212.444C338.726 213.79 337.461 215.363 336.464 217.103C335.548 218.83 335.111 220.77 335.199 222.723C335.244 224.545 335.501 226.404 335.102 228.205C334.885 229.124 334.475 229.987 333.9 230.737C333.325 231.487 332.599 232.106 331.767 232.556C329.726 233.729 327.384 234.099 325.081 234.381C322.524 234.694 319.864 234.979 317.65 236.413C317.382 236.586 317.128 236.16 317.396 235.987C321.247 233.493 326.119 234.4 330.259 232.736C332.191 231.959 333.901 230.595 334.506 228.534C335.035 226.732 334.771 224.815 334.71 222.97C334.596 221.066 334.951 219.164 335.742 217.429C336.647 215.643 337.85 214.025 339.298 212.643C342.509 209.479 346.197 206.84 350.228 204.821C354.816 202.492 359.768 200.964 364.871 200.305C365.187 200.264 365.19 200.76 364.876 200.801Z" fill="white"/>
<path d="M342.279 210.262C341.364 208.978 340.935 207.41 341.069 205.839C341.203 204.267 341.892 202.795 343.012 201.684C343.24 201.46 343.598 201.803 343.371 202.027C342.326 203.06 341.684 204.431 341.562 205.895C341.44 207.358 341.845 208.817 342.705 210.008C342.891 210.267 342.464 210.52 342.279 210.262Z" fill="white"/>
<path d="M335.054 221.802C338.229 222.364 341.5 221.71 344.214 219.968C344.483 219.796 344.737 220.222 344.469 220.394C341.641 222.201 338.236 222.875 334.933 222.283C334.618 222.226 334.741 221.745 335.054 221.802Z" fill="white"/>
<path d="M354.856 203.148C355.106 203.719 355.495 204.219 355.986 204.602C356.478 204.986 357.057 205.241 357.671 205.346C357.987 205.399 357.863 205.879 357.55 205.827C356.871 205.708 356.232 205.425 355.688 205.002C355.144 204.58 354.712 204.031 354.43 203.402C354.398 203.345 354.389 203.279 354.405 203.215C354.421 203.152 354.461 203.098 354.515 203.062C354.572 203.029 354.639 203.019 354.703 203.035C354.767 203.051 354.822 203.092 354.856 203.148Z" fill="white"/>
<path d="M376.423 236.899C376.226 236.872 376.028 236.845 375.827 236.82C373.165 236.467 370.479 236.331 367.795 236.412C367.587 236.415 367.377 236.422 367.17 236.431C360.705 236.696 354.346 238.159 348.416 240.746C346.057 241.777 343.781 242.986 341.605 244.363C338.601 246.264 335.495 248.564 332.137 249.34C331.788 249.425 331.434 249.488 331.076 249.529L317.202 237.52C317.184 237.477 317.163 237.437 317.145 237.393L316.569 236.939C316.677 236.86 316.789 236.781 316.897 236.702C316.959 236.656 317.024 236.613 317.086 236.567C317.128 236.537 317.171 236.507 317.207 236.478C317.221 236.468 317.235 236.458 317.247 236.451C317.283 236.422 317.32 236.399 317.354 236.372C317.984 235.927 318.618 235.484 319.256 235.046C319.259 235.043 319.259 235.043 319.265 235.042C324.097 231.654 329.314 228.85 334.807 226.691C334.972 226.628 335.139 226.563 335.31 226.506C337.784 225.587 340.329 224.871 342.919 224.366C344.338 224.094 345.77 223.894 347.21 223.767C350.93 223.445 354.678 223.711 358.315 224.553C365.566 226.234 372.199 230.214 376.128 236.422C376.228 236.581 376.326 236.737 376.423 236.899Z" fill="#E6E6E6"/>
<path d="M376.24 237.048C368.142 232.44 358.799 230.499 349.535 231.501C347.537 231.682 345.58 232.176 343.736 232.966C341.964 233.793 340.447 235.079 339.341 236.691C338.279 238.173 337.365 239.812 335.962 241.01C335.234 241.613 334.387 242.055 333.477 242.308C332.567 242.561 331.613 242.618 330.679 242.477C328.342 242.185 326.249 241.071 324.24 239.91C322.01 238.621 319.714 237.247 317.084 237.06C316.765 237.037 316.819 236.544 317.137 236.567C321.714 236.893 325.058 240.55 329.366 241.713C331.377 242.255 333.563 242.196 335.287 240.914C336.795 239.793 337.739 238.104 338.801 236.594C339.857 235.006 341.286 233.7 342.963 232.791C344.761 231.91 346.696 231.342 348.685 231.11C353.154 230.516 357.688 230.628 362.123 231.443C367.189 232.344 372.063 234.105 376.535 236.649C376.811 236.807 376.515 237.205 376.24 237.048Z" fill="white"/>
<path d="M352.498 231.003C352.541 229.427 353.143 227.917 354.196 226.743C355.25 225.569 356.687 224.808 358.25 224.595C358.566 224.554 358.647 225.043 358.33 225.085C356.874 225.28 355.535 225.99 354.556 227.085C353.578 228.18 353.022 229.588 352.991 231.057C352.984 231.376 352.491 231.32 352.498 231.003Z" fill="white"/>
<path d="M339.78 235.868C341.976 238.229 344.982 239.675 348.198 239.918C348.517 239.942 348.463 240.435 348.145 240.411C344.799 240.151 341.674 238.64 339.393 236.179C339.176 235.945 339.564 235.635 339.78 235.868Z" fill="white"/>
<path d="M366.825 232.892C366.681 233.499 366.69 234.131 366.852 234.734C367.013 235.336 367.321 235.888 367.749 236.342C367.969 236.573 367.581 236.883 367.363 236.653C366.892 236.149 366.553 235.539 366.373 234.874C366.193 234.209 366.179 233.51 366.331 232.839C366.341 232.774 366.374 232.716 366.425 232.675C366.475 232.634 366.54 232.614 366.605 232.619C366.67 232.626 366.73 232.659 366.771 232.71C366.812 232.762 366.831 232.827 366.825 232.892Z" fill="white"/>
<path d="M114.786 215.16C121.633 204.778 133.882 197.268 146.217 198.884C136.423 208.213 130.246 220.705 128.779 234.148C128.232 239.335 128.164 245.161 124.452 248.827C122.143 251.107 118.78 252.064 115.534 252.097C112.288 252.13 109.097 251.333 105.949 250.542L105.16 250.728C105.686 238.303 107.938 225.543 114.786 215.16Z" fill="#E6E6E6"/>
<path d="M146.218 199.145C136.667 202.991 128.571 209.748 123.081 218.456C121.865 220.31 120.95 222.343 120.368 224.482C119.869 226.583 119.941 228.78 120.579 230.844C121.134 232.781 121.926 234.697 122.001 236.735C122.024 237.778 121.826 238.815 121.42 239.777C121.014 240.738 120.409 241.603 119.645 242.315C117.788 244.138 115.386 245.185 113.002 246.127C110.354 247.173 107.588 248.217 105.62 250.366C105.382 250.626 104.991 250.241 105.23 249.981C108.654 246.243 114.117 245.859 118.082 242.927C119.933 241.559 121.381 239.625 121.455 237.252C121.519 235.177 120.704 233.2 120.124 231.245C119.473 229.24 119.323 227.107 119.687 225.031C120.158 222.87 120.993 220.805 122.157 218.923C124.711 214.647 127.921 210.798 131.671 207.518C135.929 203.751 140.801 200.74 146.075 198.616C146.402 198.484 146.542 199.014 146.218 199.145Z" fill="white"/>
<path d="M124.684 215.548C123.347 214.429 122.452 212.872 122.159 211.154C121.865 209.436 122.192 207.669 123.081 206.17C123.262 205.867 123.741 206.134 123.56 206.437C122.729 207.832 122.425 209.477 122.702 211.076C122.979 212.676 123.818 214.123 125.069 215.158C125.34 215.383 124.954 215.772 124.684 215.548Z" fill="white"/>
<path d="M120.168 229.9C123.721 229.618 127.037 228.008 129.455 225.391C129.694 225.132 130.085 225.517 129.846 225.776C127.324 228.495 123.87 230.163 120.172 230.448C119.819 230.475 119.817 229.926 120.168 229.9Z" fill="white"/>
<path d="M136.155 204.442C136.582 204.983 137.137 205.409 137.769 205.683C138.401 205.956 139.092 206.069 139.778 206.01C140.13 205.978 140.132 206.527 139.782 206.558C139.024 206.619 138.261 206.494 137.562 206.194C136.863 205.893 136.248 205.426 135.77 204.833C135.721 204.78 135.693 204.711 135.692 204.639C135.692 204.567 135.719 204.498 135.768 204.445C135.819 204.394 135.888 204.364 135.961 204.364C136.034 204.363 136.103 204.391 136.155 204.442Z" fill="white"/>
<path d="M168.615 234.542C168.396 234.568 168.177 234.594 167.955 234.624C165.01 234.986 162.099 235.587 159.251 236.421C159.03 236.482 158.806 236.547 158.587 236.614C151.747 238.696 145.354 242.03 139.731 246.445C137.495 248.204 135.396 250.13 133.453 252.207C130.769 255.076 128.088 258.4 124.712 260.164C124.362 260.351 124.001 260.517 123.63 260.661L105.448 251.675C105.417 251.634 105.384 251.597 105.353 251.556L104.61 251.23C104.703 251.116 104.802 250.999 104.894 250.885C104.948 250.819 105.006 250.754 105.059 250.688C105.096 250.644 105.133 250.601 105.164 250.559C105.176 250.545 105.189 250.53 105.199 250.52C105.23 250.478 105.263 250.443 105.292 250.406C105.841 249.754 106.397 249.104 106.957 248.458C106.959 248.454 106.959 248.454 106.965 248.451C111.25 243.536 115.983 238.934 121.264 235.197C121.423 235.085 121.584 234.968 121.751 234.86C124.141 233.189 126.663 231.715 129.293 230.455C130.735 229.769 132.211 229.157 133.716 228.621C137.605 227.242 141.687 226.484 145.812 226.374C154.035 226.155 162.237 228.567 168.166 234.114C168.318 234.256 168.465 234.396 168.615 234.542Z" fill="#E6E6E6"/>
<path d="M168.46 234.752C158.517 232.075 147.983 232.598 138.355 236.246C136.268 236.995 134.312 238.068 132.56 239.425C130.895 240.802 129.63 242.6 128.896 244.632C128.173 246.512 127.651 248.519 126.484 250.191C125.874 251.038 125.091 251.747 124.188 252.27C123.284 252.794 122.28 253.12 121.242 253.229C118.661 253.566 116.113 252.957 113.642 252.274C110.898 251.516 108.06 250.685 105.194 251.216C104.847 251.28 104.768 250.738 105.114 250.674C110.1 249.75 114.694 252.731 119.625 252.777C121.927 252.798 124.248 252.126 125.736 250.276C127.037 248.657 127.577 246.588 128.292 244.678C128.979 242.686 130.144 240.892 131.685 239.454C133.363 238.011 135.274 236.865 137.336 236.064C141.951 234.186 146.832 233.045 151.801 232.683C157.47 232.238 163.174 232.766 168.664 234.244C169.004 234.335 168.797 234.843 168.46 234.752Z" fill="white"/>
<path d="M141.386 234.889C140.993 233.191 141.217 231.409 142.017 229.861C142.817 228.312 144.142 227.099 145.755 226.437C146.082 226.304 146.304 226.805 145.976 226.938C144.474 227.552 143.24 228.682 142.497 230.126C141.755 231.569 141.554 233.23 141.929 234.809C142.01 235.152 141.467 235.231 141.386 234.889Z" fill="white"/>
<path d="M129.136 243.63C132.143 245.544 135.76 246.254 139.267 245.62C139.615 245.557 139.694 246.099 139.347 246.162C135.697 246.815 131.934 246.068 128.81 244.07C128.512 243.88 128.84 243.441 129.136 243.63Z" fill="white"/>
<path d="M157.235 232.926C157.25 233.614 157.436 234.288 157.776 234.888C158.116 235.487 158.6 235.992 159.184 236.358C159.483 236.545 159.155 236.983 158.857 236.798C158.214 236.39 157.68 235.832 157.303 235.171C156.926 234.51 156.716 233.766 156.692 233.006C156.684 232.934 156.703 232.862 156.746 232.805C156.789 232.747 156.853 232.707 156.923 232.695C156.995 232.684 157.068 232.703 157.127 232.746C157.185 232.789 157.224 232.854 157.235 232.926Z" fill="white"/>
<path d="M163.519 137.321C163.974 136.869 164.323 136.323 164.544 135.722C164.764 135.12 164.85 134.478 164.795 133.839C164.74 133.201 164.546 132.582 164.226 132.027C163.906 131.472 163.469 130.994 162.944 130.626L170.1 96.004L162.379 98.4389L156.621 131.933C156.062 132.855 155.86 133.951 156.055 135.012C156.249 136.073 156.826 137.026 157.676 137.69C158.526 138.354 159.591 138.683 160.668 138.615C161.745 138.548 162.759 138.087 163.519 137.321Z" fill="#FFB6B6"/>
<path d="M180.061 44.7754L175.278 41.1665C175.278 41.1665 171.059 40.8678 170.312 48.4737C169.565 56.0795 164.886 85.2704 164.886 85.2704L157.567 119.154L167.698 121.377L175.537 84.8105L183.384 59.5831L180.061 44.7754Z" fill="#E6E6E6"/>
<path d="M176.417 107.473L153.476 89.6409C153.118 89.3625 152.886 88.9538 152.83 88.5044C152.773 88.055 152.898 87.6017 153.175 87.2439L168.785 67.1761C169.063 66.8189 169.472 66.5867 169.922 66.5305C170.371 66.4743 170.825 66.5986 171.183 66.8762L194.125 84.7081C194.482 84.9865 194.714 85.3952 194.771 85.8446C194.827 86.294 194.703 86.7473 194.425 87.1051L178.815 107.173C178.537 107.53 178.128 107.762 177.678 107.818C177.229 107.875 176.775 107.75 176.417 107.473Z" fill="#3F3D56"/>
<path d="M176.291 105.628L155.295 89.3083C154.978 89.0611 154.772 88.6982 154.722 88.2992C154.672 87.9003 154.782 87.4977 155.029 87.18L169.179 68.9877C169.427 68.6706 169.79 68.4644 170.189 68.4145C170.588 68.3645 170.991 68.4749 171.309 68.7214L192.304 85.0406C192.622 85.2878 192.828 85.6507 192.878 86.0497C192.928 86.4487 192.817 86.8512 192.571 87.1689L178.42 105.361C178.173 105.678 177.81 105.885 177.411 105.934C177.011 105.984 176.609 105.874 176.291 105.628Z" fill="white"/>
<path d="M158.048 88.8456C157.968 88.7838 157.917 88.6931 157.904 88.5933C157.892 88.4936 157.919 88.3929 157.981 88.3135L165.12 79.136C165.181 79.0567 165.272 79.005 165.372 78.9926C165.421 78.9864 165.472 78.99 165.52 79.0032C165.568 79.0164 165.613 79.0389 165.652 79.0695C165.691 79.1 165.724 79.138 165.749 79.1813C165.773 79.2246 165.789 79.2723 165.795 79.3217C165.802 79.3711 165.798 79.4212 165.785 79.4692C165.772 79.5172 165.749 79.5622 165.719 79.6015L158.58 88.779C158.518 88.8583 158.427 88.9098 158.328 88.9223C158.228 88.9348 158.127 88.9072 158.048 88.8456Z" fill="#E4E4E4"/>
<path d="M159.231 89.7652C159.152 89.7034 159.1 89.6126 159.088 89.5129C159.075 89.4131 159.103 89.3125 159.165 89.2331L166.303 80.0556C166.365 79.9762 166.456 79.9246 166.556 79.9121C166.655 79.8996 166.756 79.9273 166.836 79.989C166.915 80.0507 166.967 80.1415 166.979 80.2413C166.992 80.341 166.964 80.4417 166.902 80.5211L159.764 89.6986C159.702 89.7779 159.611 89.8294 159.511 89.8419C159.411 89.8544 159.311 89.8268 159.231 89.7652Z" fill="#E4E4E4"/>
<path d="M164.459 85.4856C164.379 85.4238 164.328 85.3331 164.315 85.2333C164.303 85.1336 164.331 85.0329 164.392 84.9535L167.487 80.9753C167.517 80.9359 167.555 80.9029 167.598 80.8782C167.642 80.8535 167.69 80.8376 167.739 80.8313C167.788 80.8251 167.839 80.8287 167.887 80.8419C167.935 80.8551 167.98 80.8776 168.019 80.9082C168.059 80.9388 168.092 80.9769 168.116 81.0202C168.141 81.0635 168.157 81.1113 168.163 81.1608C168.169 81.2102 168.165 81.2604 168.152 81.3085C168.139 81.3565 168.116 81.4015 168.085 81.4408L164.991 85.419C164.929 85.4983 164.838 85.5498 164.739 85.5623C164.639 85.5748 164.538 85.5472 164.459 85.4856Z" fill="#E4E4E4"/>
<path d="M166.054 93.2923C165.974 93.2305 165.923 93.1398 165.91 93.0401C165.898 92.9403 165.925 92.8397 165.987 92.7603L177.257 78.2719C177.287 78.2326 177.325 78.1997 177.368 78.1751C177.412 78.1504 177.46 78.1346 177.509 78.1284C177.558 78.1222 177.609 78.1258 177.657 78.139C177.705 78.1522 177.75 78.1747 177.789 78.2053C177.828 78.2359 177.861 78.2739 177.886 78.3172C177.91 78.3604 177.926 78.4081 177.932 78.4575C177.939 78.5069 177.935 78.5571 177.922 78.6051C177.909 78.6531 177.886 78.698 177.855 78.7373L166.586 93.2258C166.524 93.305 166.433 93.3566 166.333 93.3691C166.234 93.3815 166.133 93.3539 166.054 93.2923Z" fill="#E4E4E4"/>
<path d="M167.237 94.2119C167.158 94.1501 167.106 94.0594 167.094 93.9597C167.081 93.8599 167.109 93.7593 167.171 93.6799L178.44 79.1915C178.471 79.1522 178.509 79.1193 178.552 79.0946C178.595 79.07 178.643 79.0542 178.693 79.048C178.742 79.0418 178.792 79.0454 178.84 79.0586C178.888 79.0718 178.933 79.0943 178.972 79.1249C179.012 79.1554 179.045 79.1935 179.069 79.2367C179.094 79.28 179.11 79.3277 179.116 79.3771C179.122 79.4265 179.119 79.4767 179.105 79.5247C179.092 79.5727 179.07 79.6176 179.039 79.6569L167.769 94.1453C167.708 94.2246 167.617 94.2762 167.517 94.2887C167.417 94.3011 167.317 94.2736 167.237 94.2119Z" fill="#E4E4E4"/>
<path d="M169.923 96.2994C169.843 96.2376 169.792 96.1469 169.779 96.0472C169.767 95.9474 169.794 95.8468 169.856 95.7674L181.126 81.279C181.156 81.2397 181.194 81.2068 181.238 81.1821C181.281 81.1575 181.329 81.1417 181.378 81.1355C181.428 81.1293 181.478 81.1329 181.526 81.1461C181.574 81.1593 181.619 81.1818 181.658 81.2124C181.697 81.243 181.73 81.281 181.755 81.3242C181.779 81.3675 181.795 81.4152 181.802 81.4646C181.808 81.514 181.804 81.5642 181.791 81.6122C181.778 81.6602 181.755 81.7051 181.725 81.7444L170.455 96.2328C170.393 96.3121 170.302 96.3637 170.203 96.3761C170.103 96.3886 170.002 96.361 169.923 96.2994Z" fill="#E4E4E4"/>
<path d="M171.105 97.219C171.026 97.1572 170.974 97.0665 170.962 96.9668C170.949 96.867 170.977 96.7664 171.039 96.6869L182.308 82.1985C182.339 82.1592 182.377 82.1263 182.42 82.1017C182.464 82.0771 182.511 82.0612 182.561 82.0551C182.61 82.0489 182.66 82.0525 182.708 82.0657C182.756 82.0789 182.801 82.1014 182.841 82.132C182.88 82.1625 182.913 82.2005 182.937 82.2438C182.962 82.2871 182.978 82.3348 182.984 82.3842C182.99 82.4336 182.987 82.4838 182.974 82.5318C182.96 82.5798 182.938 82.6247 182.907 82.664L171.638 97.1524C171.576 97.2317 171.485 97.2832 171.385 97.2957C171.285 97.3082 171.185 97.2806 171.105 97.219Z" fill="#E4E4E4"/>
<path d="M173.792 99.3066C173.712 99.2448 173.661 99.1541 173.648 99.0544C173.636 98.9546 173.664 98.854 173.725 98.7746L184.995 84.2862C185.025 84.2469 185.063 84.214 185.107 84.1894C185.15 84.1647 185.198 84.1489 185.247 84.1427C185.297 84.1365 185.347 84.1401 185.395 84.1533C185.443 84.1665 185.488 84.189 185.527 84.2196C185.566 84.2502 185.599 84.2882 185.624 84.3314C185.649 84.3747 185.664 84.4224 185.671 84.4718C185.677 84.5212 185.673 84.5714 185.66 84.6194C185.647 84.6674 185.624 84.7123 185.594 84.7516L174.324 99.24C174.262 99.3193 174.171 99.3709 174.072 99.3834C173.972 99.3958 173.871 99.3682 173.792 99.3066Z" fill="#E4E4E4"/>
<path d="M174.974 100.226C174.895 100.164 174.844 100.074 174.831 99.9739C174.819 99.8742 174.846 99.7735 174.908 99.6941L186.178 85.2058C186.239 85.1267 186.33 85.0755 186.43 85.0632C186.529 85.0509 186.63 85.0785 186.709 85.1401C186.788 85.2017 186.84 85.2922 186.852 85.3918C186.865 85.4913 186.838 85.5918 186.776 85.6713L175.507 100.16C175.445 100.239 175.354 100.29 175.254 100.303C175.155 100.315 175.054 100.288 174.974 100.226Z" fill="#E4E4E4"/>
<path d="M156.139 117.052C156.225 117.052 156.295 116.983 156.295 116.897C156.295 116.811 156.225 116.741 156.139 116.741C156.053 116.741 155.983 116.811 155.983 116.897C155.983 116.983 156.053 117.052 156.139 117.052Z" fill="white"/>
<path d="M178.832 9.78686C178.284 12.7287 177.386 15.5944 176.156 18.3227C169.116 33.2105 189.165 28.3579 196.33 28.3579C204.164 28.3579 211.659 32.4757 210.514 14.1789C210.025 6.36339 204.164 0 196.33 0C189.639 0 180.231 2.97304 178.832 9.78686Z" fill="#2F2E41"/>
<path d="M203.632 228.137H196.957L193.781 202.403H203.632V228.137Z" fill="#FFB6B6"/>
<path d="M207.155 239.697H202.368L201.514 235.18L199.326 239.697H186.631C186.023 239.697 185.43 239.503 184.94 239.143C184.45 238.782 184.088 238.274 183.907 237.694C183.726 237.113 183.735 236.49 183.933 235.915C184.132 235.34 184.509 234.843 185.01 234.497L195.147 227.499V222.932L205.81 223.568L207.155 239.697Z" fill="#2F2E41"/>
<path d="M243.284 219.718L237.928 223.699L220.018 204.943L227.922 199.067L243.284 219.718Z" fill="#FFB6B6"/>
<path d="M253.011 226.893L249.17 229.748L245.788 226.632L246.729 231.562L236.542 239.135C236.054 239.498 235.462 239.695 234.854 239.698C234.245 239.702 233.652 239.51 233.16 239.152C232.668 238.794 232.303 238.288 232.119 237.709C231.935 237.129 231.941 236.505 232.137 235.929L236.094 224.266L233.368 220.601L242.304 214.751L253.011 226.893Z" fill="#2F2E41"/>
<path d="M181.772 109.7L213.455 104.767L207.155 85.8197H181.772V109.7Z" fill="#FFB6B6"/>
<path d="M211.403 95.3625C211.403 95.3625 224.067 106.299 218.224 137.477L211.091 168.026L230.525 201.754L220.643 207.142L196.694 173.868L185.734 148.171L179.938 103.134L211.403 95.3625Z" fill="#2F2E41"/>
<path d="M191.774 155.494L191.013 167.286L193.242 202.203L204.312 206.013L206.408 170.237L191.774 155.494Z" fill="#2F2E41"/>
<path d="M188.371 32.2822L200.618 32.7598L205.499 40.859L216.635 43.0321L209.987 76.6511L211.209 95.7867L200.121 95.7191C192.13 95.6704 184.402 98.5726 178.419 103.869L178.751 79.0295L173.981 60.4871L175.053 41.0443L184.012 39.9249L188.371 32.2822Z" fill="#E6E6E6"/>
<path d="M195.156 28.3543C201.522 28.3543 206.682 23.1958 206.682 16.8323C206.682 10.4689 201.522 5.31036 195.156 5.31036C188.79 5.31036 183.63 10.4689 183.63 16.8323C183.63 23.1958 188.79 28.3543 195.156 28.3543Z" fill="#FFB6B6"/>
<path d="M187.328 5.08733C189.348 3.85647 191.661 3.19064 194.027 3.15947C196.392 3.1283 198.722 3.73293 200.774 4.91014C202.825 6.08735 204.523 7.79389 205.689 9.85134C206.855 11.9088 207.446 14.2416 207.401 16.6058C201.528 18.0798 195.358 19.2078 189.095 16.9583L187.615 13.3396L186.743 16.961C184.836 17.7404 182.924 18.3998 181.011 16.9535C180.933 14.596 181.476 12.2592 182.584 10.1769C183.693 8.09457 185.328 6.33957 187.328 5.08733Z" fill="#2F2E41"/>
<path d="M214.503 119.016L216.057 133.112C216.165 133.464 216.383 133.772 216.679 133.99C216.975 134.209 217.334 134.327 217.702 134.327H224.864C225.232 134.327 225.591 134.209 225.887 133.99C226.183 133.772 226.401 133.464 226.509 133.112L227.796 122.308C228.168 122.49 228.577 122.582 228.991 122.575C229.404 122.568 229.81 122.463 230.176 122.269C230.541 122.074 230.855 121.796 231.091 121.457C231.328 121.117 231.48 120.727 231.537 120.317C231.593 119.907 231.551 119.49 231.414 119.1C231.278 118.709 231.05 118.357 230.751 118.072C230.452 117.786 230.089 117.576 229.692 117.458C229.296 117.34 228.877 117.318 228.47 117.393C228.31 117.204 228.11 117.051 227.884 116.947C227.658 116.843 227.413 116.789 227.164 116.79H216.148C215.879 116.79 215.613 116.853 215.373 116.974C215.132 117.096 214.924 117.272 214.763 117.488C214.603 117.705 214.497 117.956 214.451 118.221C214.406 118.487 214.424 118.759 214.503 119.016ZM228.021 121.578L228.809 119.016C228.901 118.721 228.91 118.406 228.835 118.106C228.869 118.104 228.901 118.096 228.935 118.096C229.43 118.096 229.905 118.292 230.255 118.642C230.605 118.992 230.801 119.466 230.801 119.961C230.801 120.456 230.605 120.931 230.255 121.28C229.905 121.63 229.43 121.827 228.935 121.827C228.614 121.825 228.299 121.739 228.021 121.578Z" fill="#004225"/>
<path d="M225.303 134.337C224.851 133.882 224.504 133.335 224.287 132.732C224.07 132.129 223.987 131.486 224.045 130.848C224.103 130.21 224.301 129.592 224.623 129.039C224.946 128.485 225.386 128.009 225.913 127.644L218.933 92.9863L226.641 95.4603L232.228 128.983C232.783 129.908 232.979 131.005 232.78 132.065C232.58 133.125 231.998 134.075 231.144 134.735C230.291 135.394 229.225 135.718 228.148 135.645C227.072 135.572 226.059 135.106 225.303 134.337Z" fill="#FFB6B6"/>
<path d="M211.852 46.641L216.635 43.0321C216.635 43.0321 220.854 42.7334 221.601 50.3393C222.348 57.9451 227.027 87.1361 227.027 87.1361L234.345 121.02L224.215 123.243L216.376 86.6761L208.529 61.4487L211.852 46.641Z" fill="#E6E6E6"/>
<path d="M170.575 78.1902C172.07 78.1902 173.282 76.9785 173.282 75.4839C173.282 73.9892 172.07 72.7775 170.575 72.7775C169.079 72.7775 167.867 73.9892 167.867 75.4839C167.867 76.9785 169.079 78.1902 170.575 78.1902Z" fill="#004225"/>
<path d="M84.2421 259.533L89.8843 259.533L92.5686 237.778L84.2412 237.779L84.2421 259.533Z" fill="#FFB6B6"/>
<path d="M82.8027 257.691L84.3908 257.691L90.591 255.171L93.9141 257.691C95.7921 257.691 97.5936 258.437 98.9215 259.764C100.249 261.092 100.996 262.892 100.996 264.769V264.999L82.8031 265L82.8027 257.691Z" fill="#2F2E41"/>
<path d="M106.106 255.979L111.61 257.221L119.022 236.592L110.899 234.759L106.106 255.979Z" fill="#FFB6B6"/>
<path d="M105.108 253.866L106.657 254.215L113.261 253.122L115.947 256.312L115.947 256.312C117.779 256.726 119.372 257.85 120.374 259.437C121.377 261.024 121.708 262.944 121.295 264.776L121.244 265L103.498 260.995L105.108 253.866Z" fill="#2F2E41"/>
<path d="M73.9126 147.632L79.0146 204.773C79.0146 204.773 77.103 239.078 83.2716 251.15H92.2178L96.6473 201.64L97.2035 168.409L116.383 196.445L104.167 250.34L115.178 251.324L135.001 192.835L113.223 137.928L73.9126 147.632Z" fill="#2F2E41"/>
<path d="M79.256 56.6349C86.5229 56.6349 92.4139 50.7461 92.4139 43.482C92.4139 36.2178 86.5229 30.329 79.256 30.329C71.9891 30.329 66.0981 36.2178 66.0981 43.482C66.0981 50.7461 71.9891 56.6349 79.256 56.6349Z" fill="#FFB8B8"/>
<path d="M102.386 69.169L91.5919 64.5391L86.337 58.9675L73.2096 61.0839L69.7266 67.0537L58.4517 77.5338L71.6616 137.241L71.2617 150.281C71.2617 150.281 79.7164 154.086 116.383 145.326C116.823 145.221 115.902 144.761 115.902 144.761L102.386 69.169Z" fill="#3F3D56"/>
<path d="M65.574 50.9452C65.4823 50.8201 65.3915 50.694 65.3016 50.5668C65.2654 50.6432 65.2367 50.7221 65.1953 50.7967L65.574 50.9452Z" fill="#2F2E41"/>
<path d="M92.3446 33.8611C91.465 31.9458 89.8969 30.4314 87.9516 29.6188C86.0236 28.8414 83.8688 28.8433 81.9421 29.624C80.2026 28.5254 78.2699 27.6545 76.2344 27.5466C74.1989 27.4387 72.0469 28.1936 70.7925 29.8552C70.5124 30.2939 70.1943 30.707 69.8418 31.0899C68.8335 32.0233 67.3012 31.8887 65.961 31.6978C66.5621 32.2128 67.1633 32.7278 67.7647 33.2428C67.0371 33.4328 66.3094 33.6228 65.5816 33.8129C66.4308 34.3277 67.28 34.8425 68.129 35.3573C65.6639 36.8364 64.5435 40.0646 64.8394 42.9966C65.1194 45.7724 66.4601 48.3107 68.0627 50.5668C68.702 49.2182 68.5643 47.6045 68.5537 46.0856C68.5427 44.4807 68.8267 42.6583 70.1132 41.7613C70.9811 41.1563 72.097 41.1293 73.1435 41.135C78.4222 41.164 83.695 41.493 88.9363 42.1206C89.6476 42.1513 90.341 42.3524 90.9583 42.7068C92.1174 43.4973 92.3432 45.1285 92.4596 46.5596C93.072 44.1966 93.3717 41.7636 93.3511 39.3227C93.4026 37.4518 93.0597 35.5909 92.3446 33.8611Z" fill="#2F2E41"/>
<path d="M96.441 187.688C107.879 187.688 117.151 178.42 117.151 166.986C117.151 155.553 107.879 146.284 96.441 146.284C85.0034 146.284 75.7314 155.553 75.7314 166.986C75.7314 178.42 85.0034 187.688 96.441 187.688Z" fill="white"/>
<path d="M96.4413 145.824C95.3768 145.824 94.3137 145.904 93.2611 146.063C92.7227 146.142 92.1982 146.243 91.678 146.367C87.8575 147.247 84.3567 149.172 81.5664 151.925C78.7761 154.678 76.8059 158.152 75.8757 161.96C74.9454 165.767 75.0917 169.758 76.2983 173.487C77.5048 177.216 79.7241 180.537 82.7086 183.078C83.063 183.377 83.4218 183.667 83.7946 183.943C86.4814 185.946 89.6054 187.282 92.9096 187.842C96.2139 188.401 99.6038 188.169 102.801 187.163C105.997 186.157 108.909 184.407 111.297 182.056C113.685 179.705 115.48 176.821 116.535 173.642C117.59 170.462 117.875 167.077 117.365 163.766C116.856 160.455 115.567 157.312 113.605 154.596C111.643 151.88 109.064 149.668 106.08 148.143C103.096 146.618 99.7926 145.824 96.4413 145.824ZM96.4413 187.228C92.1356 187.233 87.9419 185.857 84.4757 183.304C84.0984 183.028 83.7349 182.743 83.3805 182.439C80.4728 179.987 78.3153 176.766 77.1555 173.144C75.9956 169.522 75.8804 165.647 76.8231 161.963C77.7657 158.279 79.728 154.935 82.4849 152.315C85.2418 149.695 88.6816 147.904 92.4099 147.149C92.9252 147.043 93.4407 146.961 93.9654 146.896C94.7868 146.794 95.6137 146.744 96.4413 146.744C101.812 146.744 106.962 148.877 110.76 152.673C114.557 156.469 116.691 161.618 116.691 166.986C116.691 172.355 114.557 177.503 110.76 181.299C106.962 185.095 101.812 187.228 96.4413 187.228Z" fill="#3F3D56"/>
<path d="M86.2832 162.846H106.599C107.343 162.846 107.946 162.243 107.946 161.499V161.433C107.946 160.689 107.343 160.085 106.599 160.085H86.2832C85.539 160.085 84.9356 160.689 84.9356 161.433V161.499C84.9356 162.243 85.539 162.846 86.2832 162.846Z" fill="#004225"/>
<path d="M86.2832 168.366H106.599C107.343 168.366 107.946 167.763 107.946 167.019V166.953C107.946 166.209 107.343 165.606 106.599 165.606H86.2832C85.539 165.606 84.9356 166.209 84.9356 166.953V167.019C84.9356 167.763 85.539 168.366 86.2832 168.366Z" fill="#004225"/>
<path d="M86.2832 173.887H106.599C107.343 173.887 107.946 173.284 107.946 172.54V172.474C107.946 171.73 107.343 171.126 106.599 171.126H86.2832C85.539 171.126 84.9356 171.73 84.9356 172.474V172.54C84.9356 173.284 85.539 173.887 86.2832 173.887Z" fill="#004225"/>
<path d="M328.136 258.831L322.22 258.83L319.405 236.02L328.137 236.02L328.136 258.831Z" fill="#9E616A"/>
<path d="M300.147 258.831L294.232 258.83L291.417 236.02L300.149 236.02L300.147 258.831Z" fill="#9E616A"/>
<path d="M300.356 265L282.163 264.999V264.769C282.163 262.892 282.909 261.092 284.237 259.764C285.565 258.437 287.366 257.691 289.244 257.691H289.245L292.568 255.171L298.768 257.691L300.356 257.692L300.356 265Z" fill="#2F2E41"/>
<path d="M329.103 265L310.91 264.999V264.769C310.91 262.892 311.656 261.092 312.984 259.764C314.312 258.437 316.113 257.691 317.991 257.691H317.992L321.315 255.171L327.515 257.691L329.103 257.692L329.103 265Z" fill="#2F2E41"/>
<path d="M294.344 123.829L285.353 178.556L287.8 186.712L284.589 192.488L289.304 243.213L287.39 247.425L292.738 250.722H303.62L304.197 204.8L306.885 198.058V194.342L312.357 166.34L313.365 205.555L314.956 212.308L313.619 217.116L315.366 220.484L320.007 251.723H332.209L331.265 244.455C332.328 243.917 333.182 243.041 333.693 241.965C334.204 240.89 334.342 239.674 334.087 238.511L333.387 235.326L334.979 225.907L337.879 173.362L337.061 130.965L322.787 120.053L294.344 123.829Z" fill="#2F2E41"/>
<path d="M314.957 53.5516C321.218 53.5516 326.294 48.4779 326.294 42.2191C326.294 35.9602 321.218 30.8865 314.957 30.8865C308.696 30.8865 303.62 35.9602 303.62 42.2191C303.62 48.4779 308.696 53.5516 314.957 53.5516Z" fill="#9E616A"/>
<path d="M290.187 145.546C290.68 145.037 291.056 144.425 291.287 143.755C291.518 143.084 291.6 142.371 291.526 141.666C291.452 140.961 291.224 140.28 290.858 139.673C290.493 139.065 289.998 138.545 289.41 138.149L293.818 121.484L285.325 124.34L282.441 139.727C281.841 140.76 281.64 141.976 281.878 143.146C282.115 144.316 282.773 145.359 283.728 146.076C284.683 146.793 285.868 147.136 287.058 147.038C288.249 146.94 289.362 146.409 290.187 145.546Z" fill="#9E616A"/>
<path d="M294.826 65.5341L293.003 65.1559L291.448 66.0165C291.448 66.0165 287.105 71.8051 287.105 77.1113C287.105 82.4175 281.797 133.55 281.797 133.55L291.448 137.892L299.169 97.8538L294.826 65.5341Z" fill="#E6E6E6"/>
<path d="M324.885 33.9102C324.885 33.9102 327.85 28.244 321.327 27.7288C321.327 27.7288 315.766 22.686 310.097 26.8069C310.097 26.8069 307.005 26.8069 305.315 30.3044C305.315 30.3044 302.883 29.3825 302.348 31.8498C302.348 31.8498 300.569 37.001 302.348 41.637C304.128 46.2731 304.719 46.7882 304.719 46.7882C304.719 46.7882 301.795 37.0684 308.912 36.5533C316.029 36.0382 323.993 31.5922 324.586 37.2585C325.179 42.9248 326.072 44.3209 326.072 44.3209C326.072 44.3209 331.705 36.2283 324.885 33.9102Z" fill="#2F2E41"/>
<path d="M366.297 192.488C365.442 192.489 364.616 192.174 363.978 191.603L329.669 161.074C328.978 160.458 328.56 159.592 328.506 158.667C328.452 157.743 328.768 156.834 329.383 156.142L351.361 131.461C351.978 130.769 352.844 130.351 353.769 130.297C354.694 130.244 355.603 130.559 356.295 131.174L390.605 161.703C391.297 162.319 391.716 163.185 391.77 164.11C391.823 165.035 391.507 165.943 390.891 166.635L368.912 191.316C368.608 191.66 368.239 191.94 367.825 192.14C367.412 192.34 366.963 192.456 366.505 192.481C366.435 192.486 366.366 192.488 366.297 192.488Z" fill="white"/>
<path d="M366.297 192.712C365.386 192.714 364.507 192.378 363.829 191.771L329.52 161.242C328.784 160.586 328.339 159.665 328.282 158.68C328.224 157.696 328.56 156.73 329.215 155.993L351.193 131.311C351.85 130.576 352.772 130.131 353.756 130.074C354.74 130.016 355.707 130.352 356.445 131.006L390.754 161.536C391.49 162.191 391.936 163.113 391.994 164.097C392.051 165.081 391.715 166.048 391.059 166.785L369.08 191.466C368.756 191.832 368.363 192.13 367.923 192.343C367.483 192.555 367.006 192.679 366.518 192.706C366.444 192.71 366.37 192.712 366.297 192.712ZM353.973 130.965C353.575 130.964 353.181 131.047 352.817 131.21C352.454 131.373 352.129 131.611 351.865 131.908L329.886 156.59C329.389 157.149 329.135 157.882 329.178 158.628C329.221 159.375 329.559 160.074 330.117 160.571L364.426 191.1C364.703 191.347 365.025 191.536 365.375 191.658C365.725 191.779 366.096 191.831 366.466 191.809C366.835 191.788 367.197 191.694 367.531 191.532C367.864 191.371 368.163 191.145 368.409 190.869L390.388 166.187C390.885 165.629 391.14 164.896 391.097 164.149C391.053 163.402 390.715 162.704 390.156 162.206L355.847 131.677C355.331 131.217 354.664 130.964 353.973 130.965Z" fill="#3F3D56"/>
<path d="M378.738 169.113C378.368 169.114 378.01 168.978 377.734 168.731L350.802 144.767C350.653 144.635 350.532 144.475 350.445 144.296C350.358 144.117 350.307 143.923 350.295 143.724C350.283 143.526 350.31 143.327 350.376 143.139C350.441 142.951 350.542 142.778 350.675 142.629C350.807 142.481 350.967 142.36 351.147 142.273C351.326 142.187 351.52 142.136 351.719 142.125C351.918 142.114 352.117 142.142 352.304 142.208C352.492 142.274 352.665 142.376 352.813 142.509L379.745 166.473C379.974 166.677 380.136 166.945 380.208 167.243C380.281 167.541 380.262 167.854 380.153 168.14C380.043 168.426 379.85 168.673 379.597 168.847C379.344 169.02 379.045 169.113 378.738 169.113Z" fill="#004225"/>
<path d="M373.602 174.881C373.231 174.882 372.873 174.746 372.597 174.499L345.666 150.535C345.517 150.403 345.397 150.243 345.31 150.064C345.224 149.886 345.173 149.692 345.162 149.494C345.15 149.296 345.178 149.097 345.243 148.91C345.308 148.722 345.41 148.549 345.542 148.401C345.674 148.253 345.834 148.132 346.013 148.046C346.191 147.959 346.385 147.909 346.584 147.897C346.782 147.886 346.981 147.913 347.168 147.979C347.356 148.044 347.528 148.145 347.677 148.277L374.608 172.242C374.837 172.445 374.999 172.714 375.072 173.012C375.145 173.309 375.125 173.622 375.016 173.909C374.907 174.195 374.713 174.441 374.46 174.615C374.208 174.789 373.908 174.882 373.602 174.881Z" fill="#004225"/>
<path d="M368.465 180.651C368.094 180.651 367.736 180.515 367.46 180.268L340.528 156.304C340.38 156.172 340.259 156.012 340.172 155.834C340.085 155.655 340.035 155.461 340.023 155.263C340.011 155.064 340.039 154.866 340.104 154.678C340.17 154.49 340.271 154.317 340.403 154.169C340.535 154.02 340.696 153.9 340.874 153.813C341.053 153.727 341.248 153.676 341.446 153.665C341.644 153.653 341.843 153.681 342.031 153.747C342.218 153.812 342.391 153.914 342.54 154.046L369.471 178.011C369.7 178.214 369.862 178.483 369.935 178.78C370.007 179.078 369.988 179.391 369.879 179.677C369.77 179.964 369.576 180.21 369.323 180.384C369.071 180.558 368.771 180.651 368.465 180.651Z" fill="#004225"/>
<path d="M337.667 146.53C337.321 145.91 337.115 145.223 337.064 144.516C337.013 143.808 337.118 143.098 337.371 142.436C337.624 141.773 338.02 141.175 338.529 140.681C339.039 140.188 339.651 139.813 340.321 139.581L340.35 122.343L347.823 127.287L346.65 142.899C346.964 144.051 346.844 145.278 346.314 146.347C345.783 147.417 344.879 148.255 343.771 148.703C342.664 149.15 341.431 149.176 340.306 148.776C339.181 148.375 338.242 147.576 337.667 146.53Z" fill="#9E616A"/>
<path d="M338.357 70.2579L341.696 67.0413L344.148 68.8107C344.148 68.8107 346.561 71.705 348.491 80.3879C350.421 89.0708 348.491 136.827 348.491 136.827L337.875 135.38L339.323 110.296L334.979 89.0708L338.357 70.2579Z" fill="#E6E6E6"/>
<path d="M343.287 67.8259L332.04 62.4554L324.404 55.3753L310.479 55.2712L305.987 61.1084L294.129 65.1351L296.105 106.01L294.758 109.153C294.758 109.153 295.697 110.001 296.126 110.475C296.555 110.949 295.533 114.919 295.533 114.919L294.957 119.237L296.555 120.378L294.478 122.831L293.962 126.697C293.962 126.697 330.218 117.689 337.068 132.611C337.43 133.4 336.539 125.694 336.539 125.694L335.648 120.053L336.532 114.99L337.879 113.643L335.619 111.384L337.068 100.664L343.287 67.8259Z" fill="#3F3D56"/>
<path d="M88.2234 158.442C88.5025 157.733 88.6228 156.972 88.5759 156.212C88.529 155.452 88.3159 154.712 87.9518 154.043C87.5876 153.374 87.0812 152.794 86.4682 152.342C85.8551 151.89 85.1505 151.578 84.4037 151.427L81.9053 133.088L74.6611 139.418L78.1443 155.863C77.9749 157.134 78.2778 158.422 78.9954 159.485C79.713 160.547 80.7956 161.31 82.0379 161.628C83.2803 161.945 84.5962 161.797 85.7362 161.21C86.8762 160.622 87.7612 159.638 88.2234 158.442Z" fill="#FFB8B8"/>
<path d="M59.8419 77.1984L57.8784 77.5743L56.6915 79.068C56.6915 79.068 54.7714 86.5964 56.9587 91.8575C59.146 97.1187 74.9601 150.004 74.9601 150.004L86.319 150.333L77.4705 107.455L59.8419 77.1984Z" fill="#3F3D56"/>
<path d="M104.622 155.752C104.098 155.198 103.703 154.537 103.463 153.814C103.223 153.092 103.145 152.325 103.233 151.569C103.322 150.813 103.575 150.085 103.975 149.437C104.375 148.789 104.913 148.237 105.55 147.819L101.027 129.871L110.11 133.045L113.012 149.602C113.643 150.718 113.843 152.027 113.573 153.28C113.304 154.533 112.584 155.644 111.549 156.402C110.515 157.16 109.239 157.513 107.962 157.393C106.685 157.273 105.497 156.689 104.622 155.752Z" fill="#FFB8B8"/>
<path d="M100.653 69.7884L102.615 69.4054L104.274 70.349C104.274 70.349 108.863 76.6188 108.796 82.3158C108.729 88.0128 113.781 142.978 113.781 142.978L103.364 147.517L95.5811 104.433L100.653 69.7884Z" fill="#3F3D56"/>
</g>
<defs>
<clipPath id="clip0_110_4790">
<rect width="392" height="265" fill="white"/>
</clipPath>
</defs>
</svg>
