<svg width="304" height="264" viewBox="0 0 304 264" fill="none" xmlns="http://www.w3.org/2000/svg">
<g clip-path="url(#clip0_110_4882)">
<path d="M208.963 81.6027C208.953 87.5677 207.178 93.3956 203.863 98.3495C200.549 103.303 195.843 107.161 190.342 109.434C184.841 111.706 178.79 112.293 172.956 111.119C167.123 109.945 161.767 107.063 157.567 102.837C153.367 98.6121 150.511 93.2331 149.361 87.3806C148.21 81.5282 148.817 75.4652 151.104 69.9583C153.39 64.4514 157.255 59.7479 162.208 56.4427C167.161 53.1376 172.981 51.3791 178.931 51.3896C182.885 51.3864 186.801 52.1664 190.453 53.6849C194.105 55.2034 197.421 57.4305 200.212 60.2381C203.003 63.0457 205.213 66.3785 206.714 70.0449C208.216 73.7114 208.981 77.6392 208.963 81.6027Z" fill="#F2F2F2"/>
<path d="M259.034 99.1834L263.265 91.0862C259.471 86.4942 247.025 80.9248 247.025 80.9248L230.181 65.555C230.002 64.8693 229.645 64.243 229.148 63.7393C228.65 63.2355 228.029 62.8721 227.347 62.6855C226.664 62.4989 225.945 62.4958 225.261 62.6764C224.578 62.8571 223.953 63.2151 223.451 63.7145C222.95 64.2139 222.588 64.8371 222.402 65.5212C222.217 66.2053 222.215 66.9264 222.396 67.6116C222.577 68.2969 222.935 68.9223 223.434 69.4249C223.932 69.9274 224.554 70.2894 225.237 70.4744L243.435 92.3538L259.034 99.1834Z" fill="#9E616A"/>
<path d="M256.985 98.6247L262.958 100.531C267.302 101.918 271.982 101.813 276.26 100.234C277.554 99.7514 278.688 98.9153 279.532 97.8205C280.377 96.7256 280.9 95.4157 281.041 94.0388C281.22 92.171 280.684 90.3048 279.543 88.8176C278.402 87.3303 276.74 86.333 274.893 86.0272C269.292 85.1044 262.074 84.6493 259.499 87.721L259.473 87.7521L256.985 98.6247Z" fill="#3F3D56"/>
<path d="M214.023 123.413C230.638 123.413 244.108 109.91 244.108 93.2536C244.108 76.5969 230.638 63.094 214.023 63.094C197.407 63.094 183.938 76.5969 183.938 93.2536C183.938 109.91 197.407 123.413 214.023 123.413Z" fill="white"/>
<path d="M201.744 81.4569C201.332 83.6808 200.654 85.8472 199.728 87.9098C194.421 99.1646 209.534 95.4961 214.935 95.4961C220.84 95.4961 226.491 98.609 225.628 84.7772C225.259 78.8688 220.84 74.0583 214.935 74.0583C209.891 74.0583 202.799 76.3058 201.744 81.4569Z" fill="#2F2E41"/>
<path d="M214.05 95.4934C218.849 95.4934 222.739 91.5937 222.739 86.7831C222.739 81.9725 218.849 78.0728 214.05 78.0728C209.251 78.0728 205.361 81.9725 205.361 86.7831C205.361 91.5937 209.251 95.4934 214.05 95.4934Z" fill="#FFB6B6"/>
<path d="M208.149 77.9042C209.672 76.9737 211.416 76.4703 213.199 76.4467C214.982 76.4232 216.738 76.8802 218.285 77.7702C219.831 78.6601 221.111 79.9502 221.99 81.5056C222.869 83.061 223.315 84.8245 223.281 86.6118C218.854 87.7261 214.202 88.5789 209.481 86.8783L208.366 84.1427L207.708 86.8803C206.271 87.4695 204.829 87.968 203.387 86.8747C203.329 85.0924 203.737 83.3259 204.573 81.7517C205.409 80.1775 206.642 78.8508 208.149 77.9042Z" fill="#2F2E41"/>
<path d="M237.415 113.308C232.203 119.253 224.868 122.905 216.993 123.476C209.118 124.046 201.335 121.49 195.324 116.357L197.905 109.139C198.488 107.857 199.408 106.758 200.567 105.961C201.725 105.163 203.079 104.697 204.482 104.612L206.123 104.511L210.038 101.126C210.038 101.126 220.585 100.749 220.429 100.568L226.818 104.42L226.812 104.394L229.324 104.548C230.727 104.633 232.08 105.099 233.239 105.897C234.398 106.694 235.318 107.793 235.901 109.075L237.415 113.308Z" fill="#004225"/>
<path d="M211.383 237.583L210.635 227.16C205.738 224.706 200.318 223.488 194.845 223.61C202.545 229.577 201.928 241.502 207.261 249.664C208.944 252.197 211.173 254.317 213.785 255.869C216.396 257.42 219.322 258.362 222.346 258.626L228.755 262.322C229.488 257.465 229.162 252.506 227.799 247.788C226.436 243.069 224.07 238.702 220.861 234.989C219.041 232.924 216.969 231.097 214.693 229.55C213.292 233.582 211.383 237.583 211.383 237.583Z" fill="#F2F2F2"/>
<path d="M16.5382 52.8347L15.7907 42.4115C10.8937 39.9576 5.4733 38.739 0 38.8617C7.7002 44.8284 7.08342 56.7538 12.4162 64.9153C14.0989 67.448 16.3286 69.5686 18.94 71.12C21.5514 72.6715 24.4775 73.6139 27.5017 73.8775L33.9101 77.5734C34.6432 72.7163 34.3171 67.7576 32.9544 63.0389C31.5918 58.3203 29.2248 53.9538 26.0167 50.2405C24.1964 48.1752 22.1239 46.3479 19.8481 44.8018C18.4473 48.8334 16.5382 52.8347 16.5382 52.8347Z" fill="#F2F2F2"/>
<path d="M239.417 258.798L234.418 258.798L232.04 239.469H239.418L239.417 258.798Z" fill="#9E616A"/>
<path d="M240.692 263.656L224.574 263.655V263.451C224.574 261.783 225.235 260.183 226.412 259.004C227.588 257.824 229.184 257.162 230.848 257.162H230.848L233.792 254.922L239.286 257.162L240.693 257.162L240.692 263.656Z" fill="#2F2E41"/>
<path d="M283.472 258.798L278.474 258.798L276.096 239.469H283.473L283.472 258.798Z" fill="#9E616A"/>
<path d="M284.748 263.656L268.63 263.655V263.451C268.63 261.783 269.291 260.183 270.467 259.004C271.644 257.824 273.24 257.162 274.903 257.162H274.904L277.848 254.922L283.341 257.162L284.748 257.162L284.748 263.656Z" fill="#2F2E41"/>
<path d="M275.87 155.35L280.074 195.39C280.074 195.39 285.671 235.482 284.62 241.014C283.569 246.546 284.883 247.336 284.883 247.336L275.292 246.651C275.292 246.651 275.555 243.227 273.978 241.646C272.402 240.066 273.19 235.324 273.19 235.324L254.585 170.101L243.286 204.347C243.286 204.347 241.447 242.016 241.184 242.543C240.921 243.07 240.133 250.182 240.133 250.182H230.41C230.41 250.182 231.724 245.968 229.884 244.65C228.045 243.333 226.468 244.387 228.045 242.016C229.622 239.645 230.147 236.748 229.622 235.431C229.096 234.114 229.096 228.845 229.096 228.845C229.096 228.845 229.884 157.721 234.352 155.35C238.819 152.979 275.87 155.35 275.87 155.35Z" fill="#2F2E41"/>
<path d="M255.959 74.278C261.67 74.278 266.3 69.6367 266.3 63.9114C266.3 58.1861 261.67 53.5448 255.959 53.5448C250.248 53.5448 245.618 58.1861 245.618 63.9114C245.618 69.6367 250.248 74.278 255.959 74.278Z" fill="#9E616A"/>
<path d="M279.444 159.714C259.417 163.86 232.878 156.732 232.878 156.732L239.958 125.967L237.441 93.7709C237.133 89.8337 239.37 86.1431 242.85 84.8353L247.655 83.031L251.627 77.3306L262.973 77.7038L267.508 83.6883L271.087 85.5919L278.846 89.7174L278.88 89.7345V89.7516L276.445 113.43L274.977 127.706C274.977 127.706 279.437 143.763 278.522 145.893C277.607 148.019 278.402 146.991 278.624 148.128C278.846 149.265 279.526 149.337 279.628 151.576C279.734 153.811 279.444 159.714 279.444 159.714Z" fill="#3F3D56"/>
<path d="M303.653 264H148.957C148.865 264 148.777 263.963 148.712 263.898C148.648 263.833 148.611 263.745 148.611 263.653C148.611 263.561 148.648 263.473 148.712 263.407C148.777 263.342 148.865 263.306 148.957 263.305H303.653C303.745 263.305 303.833 263.342 303.898 263.407C303.963 263.472 304 263.561 304 263.653C304 263.745 303.963 263.833 303.898 263.898C303.833 263.963 303.745 264 303.653 264Z" fill="#CCCCCC"/>
<path d="M255.456 73.7799C257.27 73.7613 259.079 73.5875 260.863 73.2602C262.629 72.8523 266.526 69.8313 267.588 68.0467C268.378 66.7207 268.851 64.6697 269.11 63.1827C269.459 61.2148 269.391 59.1953 268.912 57.2551C268.433 55.3149 267.553 53.4972 266.328 51.9197C265.856 51.2588 265.215 50.7381 264.472 50.4127C264.406 50.3889 264.339 50.368 264.271 50.3504C263.194 50.096 262.217 49.5246 261.467 48.7098C261.321 48.5448 261.164 48.3906 260.996 48.2483C260.154 47.5724 259.164 47.1059 258.107 46.8869C256.401 46.476 253.959 46.9909 250.851 48.4185C249.29 49.1358 247.557 48.9357 246.221 48.6812C246.146 48.6687 246.069 48.6761 245.998 48.7026C245.927 48.7291 245.864 48.7739 245.815 48.8324C245.264 49.3789 244.526 49.6959 243.751 49.7197C243.277 49.7529 242.796 50.4248 242.216 51.2998C242.084 51.4985 241.931 51.7303 241.819 51.8717L241.797 51.6061L241.536 51.9098C241.126 52.3872 240.843 52.9609 240.714 53.5775C240.584 54.1941 240.613 54.8335 240.796 55.4361C240.979 56.0387 241.312 56.5851 241.763 57.0242C242.213 57.4633 242.768 57.7809 243.374 57.9475C243.855 58.0625 244.346 58.128 244.84 58.143C245.14 58.1622 245.45 58.1821 245.747 58.2259C246.703 58.3965 247.599 58.8127 248.346 59.4338C249.094 60.055 249.668 60.8598 250.013 61.7698C250.094 61.9801 250.223 62.1689 250.389 62.3215C250.554 62.4741 250.753 62.5865 250.969 62.65C251.184 62.7135 251.412 62.7264 251.634 62.6877C251.855 62.6491 252.065 62.5598 252.247 62.427C252.55 62.178 252.908 62.0061 253.291 61.9259C253.674 61.8457 254.07 61.8596 254.447 61.9663C254.774 62.1379 255.033 62.4171 255.18 62.7572C255.357 63.1357 255.642 63.4527 256 63.6678C257.219 64.2586 257.373 67.0116 257 69.3196C256.64 71.5442 255.858 73.1671 255.098 73.266C254.512 73.342 254.446 73.3856 254.406 73.4907L254.371 73.5849L254.439 73.6703C254.766 73.7797 255.113 73.8171 255.456 73.7799Z" fill="#2F2E41"/>
<path d="M214.023 123.791C207.998 123.791 202.108 122 197.099 118.645C192.089 115.289 188.185 110.52 185.879 104.94C183.574 99.3599 182.97 93.2198 184.146 87.2961C185.321 81.3724 188.222 75.9312 192.483 71.6605C196.743 67.3897 202.171 64.4813 208.08 63.303C213.989 62.1247 220.114 62.7295 225.68 65.0408C231.246 67.3521 236.004 71.2661 239.351 76.288C242.698 81.3099 244.485 87.2139 244.485 93.2537C244.475 101.35 241.263 109.112 235.552 114.837C229.842 120.562 222.099 123.782 214.023 123.791ZM214.023 63.4719C208.147 63.4719 202.403 65.2186 197.518 68.491C192.632 71.7635 188.824 76.4148 186.576 81.8567C184.327 87.2986 183.739 93.2867 184.885 99.0638C186.031 104.841 188.861 110.148 193.016 114.313C197.17 118.478 202.464 121.314 208.227 122.463C213.99 123.612 219.963 123.023 225.391 120.768C230.82 118.514 235.46 114.697 238.724 109.8C241.988 104.902 243.731 99.144 243.731 93.2537C243.722 85.3578 240.589 77.7879 235.02 72.2047C229.45 66.6214 221.899 63.4808 214.023 63.4719Z" fill="#3F3D56"/>
<path d="M108.874 60.6971C125.49 60.6971 138.959 47.1941 138.959 30.5374C138.959 13.8807 125.49 0.377747 108.874 0.377747C92.2586 0.377747 78.7891 13.8807 78.7891 30.5374C78.7891 47.1941 92.2586 60.6971 108.874 60.6971Z" fill="white"/>
<path d="M110.266 33.6139C115.684 33.6139 120.077 29.2108 120.077 23.7793C120.077 18.3479 115.684 13.9448 110.266 13.9448C104.848 13.9448 100.456 18.3479 100.456 23.7793C100.456 29.2108 104.848 33.6139 110.266 33.6139Z" fill="#FFB8B8"/>
<path d="M118.905 17.2824C118.905 17.2824 121.459 12.3874 115.839 11.9424C115.839 11.9424 111.049 7.58596 106.166 11.146C106.166 11.146 103.502 11.146 102.046 14.1674C102.046 14.1674 99.9512 13.371 99.4908 15.5024C99.4908 15.5024 97.958 19.9525 99.4908 23.9575C101.024 27.9625 101.533 28.4075 101.533 28.4075C101.533 28.4075 100.457 23.4375 106.588 22.9925C112.719 22.5475 118.343 18.6973 118.854 23.5923C119.365 28.4874 119.927 26.2761 119.927 26.2761C119.927 26.2761 124.78 19.285 118.905 17.2824Z" fill="#2F2E41"/>
<path d="M131.499 50.5917C126.287 56.537 118.952 60.1891 111.077 60.7597C103.202 61.3302 95.419 58.7734 89.4082 53.6411L91.9887 46.4229C92.5718 45.1409 93.4921 44.0421 94.6508 43.2445C95.8094 42.4469 97.1628 41.9804 98.5658 41.8952L100.207 41.7942L104.122 38.4098C104.122 38.4098 114.669 38.0322 114.513 37.8514L120.902 41.7038L120.896 41.6772L123.408 41.8314C124.811 41.9163 126.164 42.3825 127.323 43.1802C128.482 43.9779 129.402 45.0768 129.985 46.3591L131.499 50.5917Z" fill="#004225"/>
<path d="M108.874 61.0748C102.849 61.0748 96.9598 59.2839 91.9503 55.9284C86.9409 52.5729 83.0365 47.8036 80.7309 42.2236C78.4253 36.6436 77.8221 30.5036 78.9974 24.5799C80.1728 18.6562 83.074 13.215 87.3342 8.94422C91.5944 4.67348 97.0222 1.76508 102.931 0.586783C108.84 -0.591511 114.965 0.0132294 120.531 2.32453C126.098 4.63584 130.855 8.54989 134.202 13.5717C137.55 18.5936 139.336 24.4977 139.336 30.5374C139.327 38.6336 136.115 46.3956 130.404 52.1205C124.693 57.8454 116.95 61.0657 108.874 61.0748ZM108.874 0.755631C102.998 0.75563 97.2546 2.5023 92.3691 5.77476C87.4836 9.04723 83.6758 13.6985 81.4273 19.1404C79.1787 24.5823 78.5904 30.5705 79.7367 36.3476C80.883 42.1247 83.7124 47.4313 87.8672 51.5963C92.022 55.7614 97.3155 58.5978 103.078 59.747C108.841 60.8961 114.814 60.3063 120.243 58.0522C125.671 55.7981 130.311 51.9809 133.576 47.0833C136.84 42.1857 138.582 36.4277 138.582 30.5374C138.573 22.6416 135.441 15.0716 129.871 9.48841C124.302 3.90518 116.75 0.764588 108.874 0.755631Z" fill="#3F3D56"/>
<path d="M38.6535 108.301C55.2691 108.301 68.7387 94.7981 68.7387 78.1413C68.7387 61.4846 55.2691 47.9817 38.6535 47.9817C22.0379 47.9817 8.56836 61.4846 8.56836 78.1413C8.56836 94.7981 22.0379 108.301 38.6535 108.301Z" fill="white"/>
<path d="M24.7093 68.3304C25.9534 64.356 28.7823 60.7108 32.6946 59.3672C36.6071 58.0236 42.3361 60.0703 45.2775 63.009C50.6578 68.3844 51.9708 86.851 48.2743 92.6866C47.5391 92.6476 45.002 92.6187 44.2578 92.5908L43.2052 89.0735V92.5561C42.0196 92.5194 40.8248 92.494 39.6207 92.48C35.5836 92.4298 31.7231 90.8125 28.8509 87.9681C25.9786 85.1236 24.3183 81.2736 24.219 77.2274C24.1227 73.3566 24.2191 69.8966 24.7093 68.3304Z" fill="#2F2E41"/>
<path d="M38.2069 81.5026C42.9422 81.5026 46.7809 77.6544 46.7809 72.9073C46.7809 68.1603 42.9422 64.312 38.2069 64.312C33.4715 64.312 29.6328 68.1603 29.6328 72.9073C29.6328 77.6544 33.4715 81.5026 38.2069 81.5026Z" fill="#9E616A"/>
<path d="M30.8076 65.3586L40.6798 60.4031C42.6981 61.3148 44.4364 62.7513 45.7143 64.5634C46.9922 66.3756 47.7632 68.4975 47.9474 70.709L48.1935 73.6638L44.0595 72.6089L43.6065 68.8306L42.9045 72.3141L40.9967 71.8275L41.0149 65.9618L39.1059 71.8233L32.292 70.254L30.8076 65.3586Z" fill="#2F2E41"/>
<path d="M60.9788 98.0997C55.7666 104.045 48.4313 107.697 40.5563 108.268C32.6814 108.838 24.8985 106.281 18.8877 101.149L21.4682 93.931C22.0513 92.6489 22.9716 91.5502 24.1302 90.7525C25.2889 89.9549 26.6423 89.4885 28.0453 89.4033L29.6869 89.3023L33.6014 85.9178C33.6014 85.9178 44.1487 85.5403 43.9923 85.3595L50.3811 89.2119L50.3758 89.1853L52.8873 89.3395C54.2904 89.4243 55.644 89.8906 56.8027 90.6883C57.9614 91.4859 58.8816 92.5849 59.4645 93.8672L60.9788 98.0997Z" fill="#004225"/>
<path d="M38.6534 108.679C32.6286 108.679 26.7391 106.888 21.7296 103.532C16.7202 100.177 12.8158 95.4075 10.5102 89.8275C8.2046 84.2475 7.60136 78.1074 8.77674 72.1838C9.95212 66.2601 12.8533 60.8188 17.1135 56.5481C21.3737 52.2774 26.8015 49.369 32.7106 48.1907C38.6196 47.0124 44.7445 47.6171 50.3107 49.9284C55.8769 52.2397 60.6344 56.1538 63.9816 61.1756C67.3288 66.1975 69.1154 72.1016 69.1154 78.1413C69.1062 86.2375 65.8939 93.9995 60.1832 99.7244C54.4724 105.449 46.7296 108.67 38.6534 108.679ZM38.6534 48.3595C32.7777 48.3595 27.0339 50.1062 22.1484 53.3786C17.2629 56.6511 13.4551 61.3024 11.2066 66.7443C8.95803 72.1862 8.36971 78.1743 9.516 83.9515C10.6623 89.7285 13.4917 95.0352 17.6465 99.2002C21.8013 103.365 27.0948 106.202 32.8576 107.351C38.6204 108.5 44.5938 107.91 50.0222 105.656C55.4507 103.402 60.0905 99.5848 63.3549 94.6872C66.6193 89.7896 68.3616 84.0316 68.3616 78.1413C68.3527 70.2454 65.2199 62.6755 59.6504 57.0923C54.081 51.5091 46.5298 48.3685 38.6534 48.3595Z" fill="#3F3D56"/>
<path d="M241.809 108.9L237.254 100.982C231.354 101.733 219.996 109.285 219.996 109.285L198.026 115.311C197.353 115.096 196.634 115.062 195.943 115.214C195.252 115.365 194.614 115.696 194.091 116.174C193.568 116.651 193.18 117.258 192.966 117.934C192.752 118.61 192.719 119.33 192.871 120.022C193.023 120.715 193.354 121.355 193.831 121.878C194.308 122.401 194.914 122.79 195.588 123.003C196.263 123.217 196.981 123.249 197.672 123.096C198.362 122.943 199 122.611 199.522 122.132L227.7 118.447L241.809 108.9Z" fill="#9E616A"/>
<path d="M240.24 110.335L250.437 101.773L251.921 94.8812C252.207 93.5271 252.11 92.1197 251.64 90.8181C251.17 89.5165 250.347 88.3725 249.263 87.5154C247.785 86.3635 245.926 85.817 244.062 85.9864C242.198 86.1558 240.468 87.0284 239.221 88.4279C235.443 92.6753 231.194 98.5413 232.402 102.366L232.414 102.405L240.24 110.335Z" fill="#3F3D56"/>
<path d="M83.9479 140.08H45.6328C44.606 140.079 43.6215 139.67 42.8954 138.942C42.1693 138.214 41.7609 137.227 41.7598 136.198V112.541C41.7609 111.511 42.1693 110.524 42.8954 109.796C43.6215 109.069 44.606 108.659 45.6328 108.658H83.9479C84.9748 108.659 85.9592 109.069 86.6853 109.796C87.4114 110.524 87.8198 111.511 87.821 112.541V136.198C87.8198 137.227 87.4114 138.214 86.6853 138.942C85.9592 139.67 84.9748 140.079 83.9479 140.08Z" fill="#E6E6E6"/>
<path d="M68.7243 137.033H48.3257C47.364 137.032 46.442 136.649 45.7619 135.967C45.0819 135.285 44.6994 134.361 44.6982 133.397V115.341C44.6994 114.377 45.0819 113.453 45.7619 112.771C46.442 112.09 47.364 111.706 48.3257 111.705H81.2543C82.216 111.706 83.1379 112.09 83.8179 112.771C84.498 113.453 84.8805 114.377 84.8815 115.341V120.836C84.8767 125.13 83.1728 129.247 80.1438 132.284C77.1147 135.32 73.0079 137.028 68.7243 137.033Z" fill="white"/>
<path d="M77.9695 121.592H51.6106C51.3826 121.592 51.164 121.501 51.0028 121.339C50.8415 121.178 50.751 120.959 50.751 120.73C50.751 120.502 50.8415 120.282 51.0028 120.121C51.164 119.959 51.3826 119.868 51.6106 119.868H77.9695C78.1975 119.868 78.4162 119.959 78.5774 120.121C78.7386 120.282 78.8292 120.502 78.8292 120.73C78.8292 120.959 78.7386 121.178 78.5774 121.339C78.4162 121.501 78.1975 121.592 77.9695 121.592Z" fill="#004225"/>
<path d="M55.7339 124.997H51.6107C51.3827 124.997 51.164 124.906 51.0028 124.745C50.8416 124.583 50.751 124.364 50.751 124.135C50.751 123.907 50.8416 123.688 51.0028 123.526C51.164 123.364 51.3827 123.273 51.6107 123.273H55.7339C55.9619 123.273 56.1806 123.364 56.3418 123.526C56.503 123.688 56.5936 123.907 56.5936 124.135C56.5936 124.364 56.503 124.583 56.3418 124.745C56.1806 124.906 55.9619 124.997 55.7339 124.997Z" fill="#004225"/>
<path d="M63.0368 128.402H51.6108C51.3831 128.402 51.1649 128.311 51.0041 128.149C50.8433 127.988 50.7529 127.769 50.7529 127.541C50.7529 127.312 50.8433 127.093 51.0041 126.932C51.1649 126.77 51.3831 126.679 51.6108 126.679H63.0368C63.2645 126.679 63.4827 126.77 63.6435 126.932C63.8043 127.093 63.8947 127.312 63.8947 127.541C63.8947 127.769 63.8043 127.988 63.6435 128.149C63.4827 128.311 63.2645 128.402 63.0368 128.402Z" fill="#004225"/>
<path d="M40.4225 116.312C44.8989 116.312 48.5277 112.674 48.5277 108.187C48.5277 103.699 44.8989 100.062 40.4225 100.062C35.9462 100.062 32.3174 103.699 32.3174 108.187C32.3174 112.674 35.9462 116.312 40.4225 116.312Z" fill="#3F3D56"/>
<path d="M183.443 32.7824H145.128C144.101 32.7813 143.117 32.3718 142.391 31.6439C141.664 30.9161 141.256 29.9292 141.255 28.8998V5.24283C141.256 4.21344 141.664 3.22655 142.391 2.49867C143.117 1.77078 144.101 1.36134 145.128 1.36017H183.443C184.47 1.36133 185.454 1.77077 186.18 2.49866C186.907 3.22655 187.315 4.21344 187.316 5.24283V28.8998C187.315 29.9292 186.907 30.9161 186.18 31.6439C185.454 32.3718 184.47 32.7813 183.443 32.7824Z" fill="#E6E6E6"/>
<path d="M168.219 29.7352H147.821C146.859 29.7342 145.937 29.3507 145.257 28.669C144.577 27.9874 144.194 27.0631 144.193 26.099V8.04351C144.194 7.07944 144.577 6.15517 145.257 5.47348C145.937 4.79179 146.859 4.40835 147.821 4.40729H180.749C181.711 4.40836 182.633 4.7918 183.313 5.4735C183.993 6.15519 184.376 7.07946 184.377 8.04351V13.5382C184.372 17.8324 182.668 21.9494 179.639 24.9859C176.61 28.0224 172.503 29.7304 168.219 29.7352Z" fill="white"/>
<path d="M177.465 14.2941H151.106C150.878 14.2941 150.659 14.2033 150.498 14.0416C150.337 13.88 150.246 13.6608 150.246 13.4323C150.246 13.2037 150.337 12.9845 150.498 12.8229C150.659 12.6613 150.878 12.5705 151.106 12.5705H177.465C177.693 12.5705 177.911 12.6613 178.072 12.8229C178.234 12.9845 178.324 13.2037 178.324 13.4323C178.324 13.6608 178.234 13.88 178.072 14.0416C177.911 14.2033 177.693 14.2941 177.465 14.2941Z" fill="#004225"/>
<path d="M155.229 17.6994H151.106C150.878 17.6994 150.659 17.6086 150.498 17.447C150.337 17.2854 150.246 17.0662 150.246 16.8376C150.246 16.609 150.337 16.3898 150.498 16.2282C150.659 16.0666 150.878 15.9758 151.106 15.9758H155.229C155.457 15.9758 155.676 16.0666 155.837 16.2282C155.998 16.3898 156.089 16.609 156.089 16.8376C156.089 17.0662 155.998 17.2854 155.837 17.447C155.676 17.6086 155.457 17.6994 155.229 17.6994Z" fill="#004225"/>
<path d="M162.532 21.1047H151.106C150.878 21.1043 150.66 21.0133 150.499 20.8517C150.338 20.6901 150.248 20.4712 150.248 20.2429C150.248 20.0147 150.338 19.7957 150.499 19.6342C150.66 19.4726 150.878 19.3816 151.106 19.3811H162.532C162.76 19.3811 162.979 19.4719 163.14 19.6335C163.301 19.7951 163.392 20.0144 163.392 20.2429C163.392 20.4715 163.301 20.6907 163.14 20.8523C162.979 21.0139 162.76 21.1047 162.532 21.1047Z" fill="#004225"/>
<path d="M139.918 37.3499C144.394 37.3499 148.023 33.7122 148.023 29.2247C148.023 24.7373 144.394 21.0995 139.918 21.0995C135.441 21.0995 131.812 24.7373 131.812 29.2247C131.812 33.7122 135.441 37.3499 139.918 37.3499Z" fill="#3F3D56"/>
</g>
<defs>
<clipPath id="clip0_110_4882">
<rect width="304" height="264" fill="white"/>
</clipPath>
</defs>
</svg>
